<mxfile host="app.diagrams.net" modified="2023-07-29T14:22:08.211Z" agent="Mozilla/5.0 (Windows NT 10.0; Win64; x64) AppleWebKit/537.36 (KHTML, like Gecko) Chrome/114.0.0.0 Safari/537.36" version="21.6.5" etag="t5APDL8j86RJuPEHRQhh" type="github">
  <diagram name="페이지-1" id="IwbYzOJfm3jA_a8n_OOI">
    <mxGraphModel>
      <root>
        <mxCell id="0" />
        <mxCell id="1" parent="0" />
      </root>
    </mxGraphModel>
  </diagram>
</mxfile>
